<mxfile host="app.diagrams.net" agent="Mozilla/5.0 (X11; Linux x86_64) AppleWebKit/537.36 (KHTML, like Gecko) Chrome/126.0.0.0 Safari/537.36" version="24.7.6">
  <diagram name="Page-1" id="cpKVDn_sEcKEQHX3Ep_m">
    <mxGraphModel dx="1434" dy="709" grid="1" gridSize="10" guides="1" tooltips="1" connect="1" arrows="1" fold="1" page="1" pageScale="1" pageWidth="850" pageHeight="1100" math="0" shadow="0">
      <root>
        <mxCell id="0" />
        <mxCell id="1" parent="0" />
        <mxCell id="MLOPj8ap32WdLZi7BNwZ-19" value="" style="edgeStyle=orthogonalEdgeStyle;rounded=0;orthogonalLoop=1;jettySize=auto;html=1;" parent="1" source="MLOPj8ap32WdLZi7BNwZ-1" target="MLOPj8ap32WdLZi7BNwZ-8" edge="1">
          <mxGeometry relative="1" as="geometry" />
        </mxCell>
        <mxCell id="MLOPj8ap32WdLZi7BNwZ-40" value="" style="edgeStyle=orthogonalEdgeStyle;rounded=0;orthogonalLoop=1;jettySize=auto;html=1;" parent="1" source="MLOPj8ap32WdLZi7BNwZ-5" target="MLOPj8ap32WdLZi7BNwZ-39" edge="1">
          <mxGeometry relative="1" as="geometry" />
        </mxCell>
        <mxCell id="MLOPj8ap32WdLZi7BNwZ-18" value="" style="edgeStyle=orthogonalEdgeStyle;rounded=0;orthogonalLoop=1;jettySize=auto;html=1;" parent="1" source="MLOPj8ap32WdLZi7BNwZ-8" target="MLOPj8ap32WdLZi7BNwZ-10" edge="1">
          <mxGeometry relative="1" as="geometry" />
        </mxCell>
        <mxCell id="MLOPj8ap32WdLZi7BNwZ-38" value="" style="edgeStyle=orthogonalEdgeStyle;rounded=0;orthogonalLoop=1;jettySize=auto;html=1;" parent="1" source="MLOPj8ap32WdLZi7BNwZ-8" target="MLOPj8ap32WdLZi7BNwZ-37" edge="1">
          <mxGeometry relative="1" as="geometry" />
        </mxCell>
        <mxCell id="MLOPj8ap32WdLZi7BNwZ-45" style="edgeStyle=orthogonalEdgeStyle;rounded=0;orthogonalLoop=1;jettySize=auto;html=1;entryX=0.25;entryY=1;entryDx=0;entryDy=0;" parent="1" source="MLOPj8ap32WdLZi7BNwZ-8" target="MLOPj8ap32WdLZi7BNwZ-1" edge="1">
          <mxGeometry relative="1" as="geometry">
            <Array as="points">
              <mxPoint x="150" y="330" />
              <mxPoint x="150" y="330" />
            </Array>
          </mxGeometry>
        </mxCell>
        <mxCell id="MLOPj8ap32WdLZi7BNwZ-8" value="API Gateway" style="whiteSpace=wrap;html=1;rounded=0;" parent="1" vertex="1">
          <mxGeometry x="120" y="360" width="120" height="60" as="geometry" />
        </mxCell>
        <mxCell id="MLOPj8ap32WdLZi7BNwZ-24" value="" style="edgeStyle=orthogonalEdgeStyle;rounded=0;orthogonalLoop=1;jettySize=auto;html=1;" parent="1" source="MLOPj8ap32WdLZi7BNwZ-10" target="MLOPj8ap32WdLZi7BNwZ-23" edge="1">
          <mxGeometry relative="1" as="geometry" />
        </mxCell>
        <mxCell id="MLOPj8ap32WdLZi7BNwZ-34" value="" style="edgeStyle=orthogonalEdgeStyle;rounded=0;orthogonalLoop=1;jettySize=auto;html=1;" parent="1" source="MLOPj8ap32WdLZi7BNwZ-10" target="MLOPj8ap32WdLZi7BNwZ-33" edge="1">
          <mxGeometry relative="1" as="geometry" />
        </mxCell>
        <mxCell id="MLOPj8ap32WdLZi7BNwZ-44" style="edgeStyle=orthogonalEdgeStyle;rounded=0;orthogonalLoop=1;jettySize=auto;html=1;entryX=0.75;entryY=1;entryDx=0;entryDy=0;" parent="1" source="MLOPj8ap32WdLZi7BNwZ-10" target="MLOPj8ap32WdLZi7BNwZ-8" edge="1">
          <mxGeometry relative="1" as="geometry">
            <Array as="points">
              <mxPoint x="210" y="500" />
              <mxPoint x="210" y="500" />
            </Array>
          </mxGeometry>
        </mxCell>
        <mxCell id="MLOPj8ap32WdLZi7BNwZ-10" value="Lambda" style="whiteSpace=wrap;html=1;rounded=0;" parent="1" vertex="1">
          <mxGeometry x="120" y="520" width="120" height="60" as="geometry" />
        </mxCell>
        <mxCell id="MLOPj8ap32WdLZi7BNwZ-36" value="" style="edgeStyle=orthogonalEdgeStyle;rounded=0;orthogonalLoop=1;jettySize=auto;html=1;" parent="1" source="MLOPj8ap32WdLZi7BNwZ-23" target="MLOPj8ap32WdLZi7BNwZ-35" edge="1">
          <mxGeometry relative="1" as="geometry" />
        </mxCell>
        <mxCell id="MLOPj8ap32WdLZi7BNwZ-43" style="edgeStyle=orthogonalEdgeStyle;rounded=0;orthogonalLoop=1;jettySize=auto;html=1;entryX=0.25;entryY=1;entryDx=0;entryDy=0;" parent="1" source="MLOPj8ap32WdLZi7BNwZ-23" target="MLOPj8ap32WdLZi7BNwZ-10" edge="1">
          <mxGeometry relative="1" as="geometry">
            <Array as="points">
              <mxPoint x="150" y="650" />
              <mxPoint x="150" y="650" />
            </Array>
          </mxGeometry>
        </mxCell>
        <mxCell id="MLOPj8ap32WdLZi7BNwZ-23" value="DynamoDB" style="whiteSpace=wrap;html=1;rounded=0;" parent="1" vertex="1">
          <mxGeometry x="120" y="680" width="120" height="60" as="geometry" />
        </mxCell>
        <mxCell id="MLOPj8ap32WdLZi7BNwZ-26" value="" style="swimlane;startSize=0;" parent="1" vertex="1">
          <mxGeometry x="270" y="110" width="490" height="180" as="geometry" />
        </mxCell>
        <mxCell id="MLOPj8ap32WdLZi7BNwZ-28" value="" style="swimlane;startSize=0;" parent="1" vertex="1">
          <mxGeometry x="70" y="340" width="190" height="420" as="geometry" />
        </mxCell>
        <mxCell id="MLOPj8ap32WdLZi7BNwZ-29" value="&lt;font style=&quot;font-size: 15px;&quot;&gt;&lt;b&gt;Backend&lt;/b&gt;&lt;/font&gt;" style="text;html=1;align=center;verticalAlign=middle;resizable=0;points=[];autosize=1;strokeColor=none;fillColor=none;" parent="MLOPj8ap32WdLZi7BNwZ-28" vertex="1">
          <mxGeometry x="5" y="128" width="90" height="30" as="geometry" />
        </mxCell>
        <mxCell id="MLOPj8ap32WdLZi7BNwZ-33" value="Python&lt;div&gt;AWS SDK (Boto)&lt;/div&gt;" style="whiteSpace=wrap;html=1;rounded=0;" parent="1" vertex="1">
          <mxGeometry x="280" y="520" width="120" height="60" as="geometry" />
        </mxCell>
        <mxCell id="MLOPj8ap32WdLZi7BNwZ-35" value="Non-relational DB&lt;div&gt;(key-value)&lt;/div&gt;" style="whiteSpace=wrap;html=1;rounded=0;" parent="1" vertex="1">
          <mxGeometry x="280" y="680" width="120" height="60" as="geometry" />
        </mxCell>
        <mxCell id="MLOPj8ap32WdLZi7BNwZ-37" value="OpenAPI&lt;div&gt;Specification (yaml)&lt;/div&gt;" style="whiteSpace=wrap;html=1;rounded=0;" parent="1" vertex="1">
          <mxGeometry x="280" y="360" width="120" height="60" as="geometry" />
        </mxCell>
        <mxCell id="MLOPj8ap32WdLZi7BNwZ-39" value="HTML, CSS, Javascript (Resume)" style="whiteSpace=wrap;html=1;rounded=0;" parent="1" vertex="1">
          <mxGeometry x="600" y="320" width="120" height="60" as="geometry" />
        </mxCell>
        <mxCell id="MLOPj8ap32WdLZi7BNwZ-51" value="" style="edgeStyle=orthogonalEdgeStyle;rounded=0;orthogonalLoop=1;jettySize=auto;html=1;entryX=0.5;entryY=1;entryDx=0;entryDy=0;" parent="1" source="MLOPj8ap32WdLZi7BNwZ-48" target="MLOPj8ap32WdLZi7BNwZ-28" edge="1">
          <mxGeometry relative="1" as="geometry" />
        </mxCell>
        <mxCell id="MLOPj8ap32WdLZi7BNwZ-54" value="" style="edgeStyle=orthogonalEdgeStyle;rounded=0;orthogonalLoop=1;jettySize=auto;html=1;" parent="1" source="MLOPj8ap32WdLZi7BNwZ-52" target="MLOPj8ap32WdLZi7BNwZ-26" edge="1">
          <mxGeometry relative="1" as="geometry">
            <Array as="points">
              <mxPoint x="510" y="300" />
              <mxPoint x="510" y="300" />
            </Array>
          </mxGeometry>
        </mxCell>
        <mxCell id="MLOPj8ap32WdLZi7BNwZ-52" value="&lt;span style=&quot;font-weight: normal;&quot;&gt;Automation Frontend Testing&amp;nbsp;&lt;/span&gt;&lt;span style=&quot;font-weight: normal; background-color: initial;&quot;&gt;(Python, Pytest, Selenium)&lt;/span&gt;" style="whiteSpace=wrap;html=1;fontStyle=1;startSize=0;" parent="1" vertex="1">
          <mxGeometry x="440" y="320" width="120" height="60" as="geometry" />
        </mxCell>
        <mxCell id="MLOPj8ap32WdLZi7BNwZ-55" value="" style="swimlane;startSize=0;" parent="1" vertex="1">
          <mxGeometry x="40" y="40" width="760" height="900" as="geometry" />
        </mxCell>
        <mxCell id="MLOPj8ap32WdLZi7BNwZ-59" value="Docker Container" style="whiteSpace=wrap;html=1;" parent="MLOPj8ap32WdLZi7BNwZ-55" vertex="1">
          <mxGeometry x="320" y="780" width="120" height="60" as="geometry" />
        </mxCell>
        <mxCell id="MLOPj8ap32WdLZi7BNwZ-62" style="edgeStyle=orthogonalEdgeStyle;rounded=0;orthogonalLoop=1;jettySize=auto;html=1;entryX=1;entryY=0.5;entryDx=0;entryDy=0;" parent="MLOPj8ap32WdLZi7BNwZ-55" source="MLOPj8ap32WdLZi7BNwZ-58" target="MLOPj8ap32WdLZi7BNwZ-59" edge="1">
          <mxGeometry relative="1" as="geometry" />
        </mxCell>
        <mxCell id="MLOPj8ap32WdLZi7BNwZ-64" style="edgeStyle=orthogonalEdgeStyle;rounded=0;orthogonalLoop=1;jettySize=auto;html=1;entryX=0.5;entryY=1;entryDx=0;entryDy=0;" parent="MLOPj8ap32WdLZi7BNwZ-55" source="MLOPj8ap32WdLZi7BNwZ-58" target="MLOPj8ap32WdLZi7BNwZ-63" edge="1">
          <mxGeometry relative="1" as="geometry">
            <Array as="points">
              <mxPoint x="680" y="690" />
              <mxPoint x="680" y="690" />
            </Array>
          </mxGeometry>
        </mxCell>
        <mxCell id="MLOPj8ap32WdLZi7BNwZ-82" style="edgeStyle=orthogonalEdgeStyle;rounded=0;orthogonalLoop=1;jettySize=auto;html=1;entryX=1;entryY=0.5;entryDx=0;entryDy=0;" parent="MLOPj8ap32WdLZi7BNwZ-55" source="MLOPj8ap32WdLZi7BNwZ-58" target="MLOPj8ap32WdLZi7BNwZ-74" edge="1">
          <mxGeometry relative="1" as="geometry">
            <Array as="points">
              <mxPoint x="640" y="730" />
            </Array>
          </mxGeometry>
        </mxCell>
        <mxCell id="MLOPj8ap32WdLZi7BNwZ-58" value="Github Actions" style="whiteSpace=wrap;html=1;" parent="MLOPj8ap32WdLZi7BNwZ-55" vertex="1">
          <mxGeometry x="600" y="780" width="120" height="60" as="geometry" />
        </mxCell>
        <mxCell id="MLOPj8ap32WdLZi7BNwZ-63" value="Docker Container" style="whiteSpace=wrap;html=1;" parent="MLOPj8ap32WdLZi7BNwZ-55" vertex="1">
          <mxGeometry x="620" y="360" width="120" height="60" as="geometry" />
        </mxCell>
        <mxCell id="MLOPj8ap32WdLZi7BNwZ-48" value="&lt;span style=&quot;font-weight: normal;&quot;&gt;Automation Backend Testing&amp;nbsp;&lt;/span&gt;&lt;span style=&quot;background-color: initial; font-weight: normal;&quot;&gt;(Python, Pytest)&lt;/span&gt;" style="whiteSpace=wrap;html=1;fontStyle=1;startSize=0;" parent="MLOPj8ap32WdLZi7BNwZ-55" vertex="1">
          <mxGeometry x="65" y="780" width="120" height="60" as="geometry" />
        </mxCell>
        <mxCell id="MLOPj8ap32WdLZi7BNwZ-60" value="" style="edgeStyle=orthogonalEdgeStyle;rounded=0;orthogonalLoop=1;jettySize=auto;html=1;" parent="MLOPj8ap32WdLZi7BNwZ-55" source="MLOPj8ap32WdLZi7BNwZ-59" target="MLOPj8ap32WdLZi7BNwZ-48" edge="1">
          <mxGeometry relative="1" as="geometry" />
        </mxCell>
        <mxCell id="MLOPj8ap32WdLZi7BNwZ-77" value="" style="edgeStyle=orthogonalEdgeStyle;rounded=0;orthogonalLoop=1;jettySize=auto;html=1;entryX=0.5;entryY=1;entryDx=0;entryDy=0;" parent="MLOPj8ap32WdLZi7BNwZ-55" source="MLOPj8ap32WdLZi7BNwZ-74" target="MLOPj8ap32WdLZi7BNwZ-76" edge="1">
          <mxGeometry relative="1" as="geometry" />
        </mxCell>
        <mxCell id="MLOPj8ap32WdLZi7BNwZ-74" value="Docker Container" style="whiteSpace=wrap;html=1;" parent="MLOPj8ap32WdLZi7BNwZ-55" vertex="1">
          <mxGeometry x="417.5" y="700" width="120" height="60" as="geometry" />
        </mxCell>
        <mxCell id="MLOPj8ap32WdLZi7BNwZ-76" value="" style="swimlane;startSize=0;" parent="MLOPj8ap32WdLZi7BNwZ-55" vertex="1">
          <mxGeometry x="385" y="420" width="185" height="230" as="geometry" />
        </mxCell>
        <mxCell id="MLOPj8ap32WdLZi7BNwZ-56" value="Terraform (Production, Development)" style="whiteSpace=wrap;html=1;" parent="MLOPj8ap32WdLZi7BNwZ-76" vertex="1">
          <mxGeometry x="35" y="60" width="120" height="60" as="geometry" />
        </mxCell>
        <mxCell id="MLOPj8ap32WdLZi7BNwZ-57" value="Ansible (yaml)" style="whiteSpace=wrap;html=1;" parent="MLOPj8ap32WdLZi7BNwZ-76" vertex="1">
          <mxGeometry x="35" y="140" width="120" height="60" as="geometry" />
        </mxCell>
        <mxCell id="MLOPj8ap32WdLZi7BNwZ-5" value="S3" style="whiteSpace=wrap;html=1;rounded=0;" parent="MLOPj8ap32WdLZi7BNwZ-55" vertex="1">
          <mxGeometry x="560" y="160" width="120" height="60" as="geometry" />
        </mxCell>
        <mxCell id="MLOPj8ap32WdLZi7BNwZ-30" value="User&lt;div&gt;&lt;br&gt;&lt;/div&gt;" style="shape=umlActor;verticalLabelPosition=bottom;verticalAlign=top;html=1;outlineConnect=0;" parent="MLOPj8ap32WdLZi7BNwZ-55" vertex="1">
          <mxGeometry x="35" y="70" width="30" height="60" as="geometry" />
        </mxCell>
        <mxCell id="MLOPj8ap32WdLZi7BNwZ-84" value="&lt;font style=&quot;font-size: 20px;&quot;&gt;&lt;b&gt;Cloud Resume&lt;/b&gt;&lt;/font&gt;" style="text;html=1;align=center;verticalAlign=middle;resizable=0;points=[];autosize=1;strokeColor=none;fillColor=none;" parent="MLOPj8ap32WdLZi7BNwZ-55" vertex="1">
          <mxGeometry x="300" y="10" width="160" height="40" as="geometry" />
        </mxCell>
        <mxCell id="MLOPj8ap32WdLZi7BNwZ-89" style="edgeStyle=orthogonalEdgeStyle;rounded=0;orthogonalLoop=1;jettySize=auto;html=1;entryX=0;entryY=0.25;entryDx=0;entryDy=0;" parent="MLOPj8ap32WdLZi7BNwZ-55" source="MLOPj8ap32WdLZi7BNwZ-2" target="MLOPj8ap32WdLZi7BNwZ-5" edge="1">
          <mxGeometry relative="1" as="geometry">
            <Array as="points">
              <mxPoint x="530" y="175" />
              <mxPoint x="530" y="175" />
            </Array>
          </mxGeometry>
        </mxCell>
        <mxCell id="MLOPj8ap32WdLZi7BNwZ-93" style="edgeStyle=orthogonalEdgeStyle;rounded=0;orthogonalLoop=1;jettySize=auto;html=1;entryX=0.75;entryY=0;entryDx=0;entryDy=0;" parent="MLOPj8ap32WdLZi7BNwZ-55" source="MLOPj8ap32WdLZi7BNwZ-2" target="MLOPj8ap32WdLZi7BNwZ-1" edge="1">
          <mxGeometry relative="1" as="geometry">
            <Array as="points">
              <mxPoint x="450" y="120" />
              <mxPoint x="170" y="120" />
            </Array>
          </mxGeometry>
        </mxCell>
        <mxCell id="MLOPj8ap32WdLZi7BNwZ-2" value="CloudFront" style="whiteSpace=wrap;html=1;rounded=0;" parent="MLOPj8ap32WdLZi7BNwZ-55" vertex="1">
          <mxGeometry x="400" y="160" width="120" height="60" as="geometry" />
        </mxCell>
        <mxCell id="MLOPj8ap32WdLZi7BNwZ-7" value="" style="edgeStyle=orthogonalEdgeStyle;rounded=0;orthogonalLoop=1;jettySize=auto;html=1;" parent="MLOPj8ap32WdLZi7BNwZ-55" source="MLOPj8ap32WdLZi7BNwZ-5" target="MLOPj8ap32WdLZi7BNwZ-2" edge="1">
          <mxGeometry relative="1" as="geometry" />
        </mxCell>
        <mxCell id="MLOPj8ap32WdLZi7BNwZ-85" value="Cloudflare DNS S&lt;span style=&quot;background-color: initial;&quot;&gt;erver&lt;/span&gt;" style="whiteSpace=wrap;html=1;rounded=0;" parent="MLOPj8ap32WdLZi7BNwZ-55" vertex="1">
          <mxGeometry x="250" y="160" width="120" height="60" as="geometry" />
        </mxCell>
        <mxCell id="MLOPj8ap32WdLZi7BNwZ-90" style="edgeStyle=orthogonalEdgeStyle;rounded=0;orthogonalLoop=1;jettySize=auto;html=1;" parent="MLOPj8ap32WdLZi7BNwZ-55" source="MLOPj8ap32WdLZi7BNwZ-1" target="MLOPj8ap32WdLZi7BNwZ-2" edge="1">
          <mxGeometry relative="1" as="geometry">
            <Array as="points">
              <mxPoint x="160" y="110" />
              <mxPoint x="460" y="110" />
            </Array>
          </mxGeometry>
        </mxCell>
        <mxCell id="MLOPj8ap32WdLZi7BNwZ-1" value="Website&amp;nbsp;&lt;div&gt;Client (Resume)&lt;/div&gt;" style="rounded=0;whiteSpace=wrap;html=1;" parent="MLOPj8ap32WdLZi7BNwZ-55" vertex="1">
          <mxGeometry x="80" y="150" width="120" height="60" as="geometry" />
        </mxCell>
        <mxCell id="MLOPj8ap32WdLZi7BNwZ-31" value="" style="edgeStyle=orthogonalEdgeStyle;rounded=0;orthogonalLoop=1;jettySize=auto;html=1;" parent="MLOPj8ap32WdLZi7BNwZ-55" source="MLOPj8ap32WdLZi7BNwZ-30" target="MLOPj8ap32WdLZi7BNwZ-1" edge="1">
          <mxGeometry relative="1" as="geometry" />
        </mxCell>
        <mxCell id="MLOPj8ap32WdLZi7BNwZ-87" value="" style="edgeStyle=orthogonalEdgeStyle;rounded=0;orthogonalLoop=1;jettySize=auto;html=1;" parent="MLOPj8ap32WdLZi7BNwZ-55" source="MLOPj8ap32WdLZi7BNwZ-85" target="MLOPj8ap32WdLZi7BNwZ-1" edge="1">
          <mxGeometry relative="1" as="geometry">
            <Array as="points">
              <mxPoint x="210" y="190" />
              <mxPoint x="210" y="190" />
            </Array>
          </mxGeometry>
        </mxCell>
        <mxCell id="MLOPj8ap32WdLZi7BNwZ-88" style="edgeStyle=orthogonalEdgeStyle;rounded=0;orthogonalLoop=1;jettySize=auto;html=1;entryX=0;entryY=0.25;entryDx=0;entryDy=0;" parent="MLOPj8ap32WdLZi7BNwZ-55" source="MLOPj8ap32WdLZi7BNwZ-1" target="MLOPj8ap32WdLZi7BNwZ-85" edge="1">
          <mxGeometry relative="1" as="geometry">
            <Array as="points">
              <mxPoint x="210" y="175" />
              <mxPoint x="210" y="175" />
            </Array>
          </mxGeometry>
        </mxCell>
        <mxCell id="MLOPj8ap32WdLZi7BNwZ-27" value="&lt;font style=&quot;font-size: 15px;&quot;&gt;&lt;b&gt;Frontend&lt;/b&gt;&lt;/font&gt;" style="text;html=1;align=center;verticalAlign=middle;resizable=0;points=[];autosize=1;strokeColor=none;fillColor=none;" parent="MLOPj8ap32WdLZi7BNwZ-55" vertex="1">
          <mxGeometry x="530" y="90" width="90" height="30" as="geometry" />
        </mxCell>
        <mxCell id="MLOPj8ap32WdLZi7BNwZ-65" style="edgeStyle=orthogonalEdgeStyle;rounded=0;orthogonalLoop=1;jettySize=auto;html=1;entryX=0.5;entryY=1;entryDx=0;entryDy=0;" parent="1" source="MLOPj8ap32WdLZi7BNwZ-63" target="MLOPj8ap32WdLZi7BNwZ-52" edge="1">
          <mxGeometry relative="1" as="geometry" />
        </mxCell>
        <mxCell id="MLOPj8ap32WdLZi7BNwZ-78" style="edgeStyle=orthogonalEdgeStyle;rounded=0;orthogonalLoop=1;jettySize=auto;html=1;entryX=0.35;entryY=1.083;entryDx=0;entryDy=0;entryPerimeter=0;" parent="1" source="MLOPj8ap32WdLZi7BNwZ-57" target="MLOPj8ap32WdLZi7BNwZ-39" edge="1">
          <mxGeometry relative="1" as="geometry" />
        </mxCell>
        <mxCell id="MLOPj8ap32WdLZi7BNwZ-79" style="edgeStyle=orthogonalEdgeStyle;rounded=0;orthogonalLoop=1;jettySize=auto;html=1;entryX=0.223;entryY=1.053;entryDx=0;entryDy=0;entryPerimeter=0;" parent="1" source="MLOPj8ap32WdLZi7BNwZ-56" target="MLOPj8ap32WdLZi7BNwZ-26" edge="1">
          <mxGeometry relative="1" as="geometry">
            <Array as="points">
              <mxPoint x="450" y="570" />
              <mxPoint x="450" y="415" />
              <mxPoint x="418" y="415" />
            </Array>
          </mxGeometry>
        </mxCell>
        <mxCell id="MLOPj8ap32WdLZi7BNwZ-81" style="edgeStyle=orthogonalEdgeStyle;rounded=0;orthogonalLoop=1;jettySize=auto;html=1;entryX=1.021;entryY=0.714;entryDx=0;entryDy=0;entryPerimeter=0;" parent="1" source="MLOPj8ap32WdLZi7BNwZ-56" target="MLOPj8ap32WdLZi7BNwZ-28" edge="1">
          <mxGeometry relative="1" as="geometry">
            <Array as="points">
              <mxPoint x="380" y="590" />
              <mxPoint x="380" y="640" />
            </Array>
          </mxGeometry>
        </mxCell>
        <mxCell id="MLOPj8ap32WdLZi7BNwZ-83" value="&lt;b&gt;&lt;font style=&quot;font-size: 15px;&quot;&gt;Provisioning and&amp;nbsp;&lt;/font&gt;&lt;/b&gt;&lt;div&gt;&lt;b&gt;&lt;font style=&quot;font-size: 15px;&quot;&gt;Deployment&lt;/font&gt;&lt;/b&gt;&lt;/div&gt;" style="text;html=1;align=center;verticalAlign=middle;resizable=0;points=[];autosize=1;strokeColor=none;fillColor=none;" parent="1" vertex="1">
          <mxGeometry x="445" y="468" width="150" height="50" as="geometry" />
        </mxCell>
      </root>
    </mxGraphModel>
  </diagram>
</mxfile>
